<?xml version="1.0" encoding="UTF-8"?><svg id="Layer_2" xmlns="http://www.w3.org/2000/svg" width="392.3" height="163.5" viewBox="0 0 392.3 163.5"><defs><style>.cls-1{stroke:#213e49;stroke-miterlimit:10;stroke-width:1.2px;}.cls-1,.cls-2{fill:#213e49;}.cls-2{stroke-width:0px;}</style></defs><g id="Layer_1-2"><path class="cls-1" d="M.6,159.7h3.3v1.6H.6v-1.6Z"/><path class="cls-2" d="M130.5,86.5c-1.9,0-3.7-.4-5.3-1.3-1.6-.9-2.8-2.1-3.7-3.6-.9-1.6-1.4-3.3-1.4-5.3v-2.5c0-1,.2-2.2.3-3.4,0-1.3.3-2.5.5-3.8s.3-2.5.5-3.7l2.8.5c-.3,2.1-.5,4-.7,5.7s-.4,3.2-.5,4.5-.2,2.2-.2,2.8c0,1.4.3,2.6.9,3.6s1.5,1.9,2.6,2.5,2.4.9,3.9.9,2.7-.3,3.8-.8c1.1-.6,1.9-1.4,2.4-2.4.6-1,.8-2.2.8-3.6v-23.5h2.9v23.5c0,2.1-.4,3.9-1.3,5.4s-2.1,2.6-3.6,3.4-3.2,1.2-5,1.2h.3,0ZM140.4,75.4v-3.2h19.1l-2.6,2.9v-10.5c0-1.9-.2-3.4-.6-4.7-.4-1.2-1.1-2.2-1.9-2.8-.8-.6-1.9-.9-3.2-.9s-2.1.2-3,.6-1.8,1-2.6,1.7c-.8.7-1.5,1.5-2.2,2.3s-1.3,1.7-1.9,2.6-1.1,1.7-1.5,2.4l-1-3.2c.6-.9,1.2-1.8,1.9-2.8.6-.9,1.3-1.8,2-2.6.7-.8,1.4-1.5,2.3-2.2.8-.6,1.7-1.1,2.7-1.5s2.1-.6,3.3-.6c1.7,0,3.2.4,4.3,1.1,1.1.7,2,1.7,2.6,2.8.6,1.2,1.1,2.4,1.3,3.8.2,1.3.4,2.6.4,3.9v10.8h-19.4ZM147.6,49.1v-4h2.9v4h-2.9Z"/><path class="cls-2" d="M171.1,85.3c-.9,0-1.8,0-2.7-.2-1-.2-2-.4-3.2-.7l.4-2.8c1.3.2,2.4.4,3.3.4s1.6.1,2.2.1c2,0,3.5-.5,4.5-1.4.9-.9,1.4-2.3,1.4-4.1v-21.6l1.5,1.2h-6.2c-1.4,0-2.5.2-3.3.6s-1.3,1.2-1.6,2.3c-.3,1.1-.4,2.8-.4,5s0,3.9.4,5,.8,1.9,1.6,2.3c.8.4,1.9.6,3.3.6h4.7v3.2h-4.7c-2.1,0-3.8-.4-5-1.2-1.2-.8-2-2-2.5-3.7s-.7-3.8-.7-6.3.2-4.7.7-6.3c.5-1.7,1.3-2.9,2.5-3.7,1.2-.8,2.9-1.2,5-1.2h7.6v23.5c0,1.8-.3,3.4-1,4.7-.7,1.3-1.7,2.3-3,3s-2.9,1-4.7,1v.3h-.1ZM179.8,75.4v-3.2h4v3.2h-4ZM183.8,75.4v-3.2s.3,0,.4.1c0,0,.2.2.2.3v2.3c0,.1,0,.2-.2.3,0,0-.2.1-.4.1h0Z"/><path class="cls-2" d="M183.8,75.4s-.3,0-.4-.1c0,0-.2-.2-.2-.3v-2c0-.2,0-.4.2-.5s.3-.2.5-.2v3.2h0ZM183.8,75.4v-3.2h18.6v3.2h-18.6ZM191.7,75.3c-1.3-1.4-2.3-2.9-3-4.7-.7-1.8-1-3.7-1-5.7s.2-3.3.7-4.7,1.2-2.7,2-3.8c.9-1.1,1.9-1.9,3.1-2.5s2.4-.9,3.8-.9,1.5,0,2.3.3c.8.2,1.6.4,2.4.8l-1,3c-.6-.3-1.2-.5-1.9-.6s-1.2-.2-1.8-.2c-1.3,0-2.5.4-3.5,1.1s-1.8,1.8-2.4,3.1c-.6,1.3-.9,2.8-.9,4.5s.3,3,.8,4.4,1.3,2.6,2.3,3.6l-1.9,2.4h0Z"/><path class="cls-2" d="M214.1,85.3h-1c-.3,0-.7,0-1-.1l.3-3.2c.3,0,.7,0,1,.1h.8c1.2,0,2.1-.5,2.8-1.6.7-1.1,1.1-2.5,1.1-4.4v-23.1h2.9v23.1c0,1.8-.3,3.4-.9,4.8s-1.4,2.5-2.4,3.2c-1,.8-2.2,1.1-3.5,1.1h-.1ZM220.1,75.4v-3.2h4.7v3.2h-4.7ZM224.8,75.4v-3.2s.3,0,.4.1c0,0,.2.2.2.3v2.3c0,.1,0,.2-.2.3,0,0-.2.1-.4.1h0Z"/><path class="cls-2" d="M224.8,75.4s-.3,0-.4-.1c0,0-.2-.2-.2-.3v-2c0-.2,0-.4.2-.5s.3-.2.5-.2v3.2h0ZM224.8,75.4v-3.2h27.2l-2.6,2.9v-10.5c0-1.9-.2-3.4-.6-4.7-.4-1.2-1.1-2.2-1.9-2.8-.8-.6-1.9-.9-3.2-.9s-2.1.2-3,.6-1.8,1-2.6,1.7c-.8.7-1.5,1.5-2.2,2.3s-1.3,1.7-1.9,2.6-1.1,1.7-1.5,2.4l-.9-3.2c.6-.9,1.2-1.8,1.9-2.8.6-.9,1.3-1.8,2-2.6.7-.8,1.4-1.5,2.3-2.2.8-.6,1.7-1.1,2.7-1.5s2.1-.6,3.3-.6c1.7,0,3.2.4,4.3,1.1,1.1.7,2,1.7,2.6,2.8.6,1.2,1.1,2.4,1.3,3.8s.4,2.6.4,3.9v10.8h-27.6ZM230,72.2v-19.2h2.9v19.2h-2.9Z"/><path class="cls-2" d="M258.5,75.4v-32.1h2.8v32.1h-2.8ZM261.3,75.4v-3.2h4.5v3.2h-4.5ZM265.8,75.4v-3.2s.3,0,.4.1c0,0,.2.2.2.3v2.3c0,.1,0,.2-.2.3,0,0-.2.1-.4.1h0Z"/><path class="cls-2" d="M265.8,75.4s-.3,0-.4-.1c0,0-.2-.2-.2-.3v-2c0-.2,0-.4.2-.5s.3-.2.5-.2v3.2h0ZM265.8,75.4v-3.2h5.3l-1.3,1.3v-20.5h2.9v22.4h-6.9ZM269.8,49v-4h2.9v4h-2.9Z"/><path class="cls-2" d="M295.5,86.5c-1.9,0-3.7-.4-5.3-1.3-1.6-.9-2.8-2.1-3.7-3.6-.9-1.6-1.4-3.3-1.4-5.3v-2.5c0-1,.2-2.2.3-3.4,0-1.3.3-2.5.5-3.8s.3-2.5.5-3.7l2.8.5c-.3,2.1-.5,4-.7,5.7s-.4,3.2-.5,4.5-.2,2.2-.2,2.8c0,1.4.3,2.6.9,3.6.6,1.1,1.5,1.9,2.6,2.5s2.4.9,3.9.9,2.7-.3,3.8-.8c1.1-.6,1.9-1.4,2.4-2.4.6-1,.8-2.2.8-3.6v-33.2h2.9v33.2c0,2.1-.4,3.9-1.3,5.4s-2.1,2.6-3.6,3.4-3.2,1.2-5,1.2h.3,0ZM305.5,75.4v-3.2h4v3.2h-4ZM309.4,75.4v-3.2s.3,0,.4.1c0,0,.2.2.2.3v2.3c0,.1,0,.2-.2.3,0,0-.2.1-.4.1h0Z"/><path class="cls-2" d="M309.4,75.4s-.3,0-.4-.1c0,0-.2-.2-.2-.3v-2c0-.2,0-.4.2-.5s.3-.2.5-.2v3.2h0ZM309.4,75.4v-3.2h5.4l-.7.9v-15.6h2.8v17.9h-7.5ZM316.9,75.4v-3.2h4.2c.8,0,1.5-.1,1.9-.4s.7-.9.9-1.8c.2-.9.3-2.2.3-3.9v-10.8h2.9v10.8c0,2.3-.2,4.2-.6,5.5-.4,1.4-1,2.3-1.9,2.9s-2,.9-3.4.9h-4.3ZM328.8,75.4c-.8,0-1.7-.2-2.4-.6s-1.6-1-2.3-1.8l1.9-2.4c.6.6,1.1,1,1.5,1.2.4.3.9.4,1.4.4h6.5l-1.1,1.4v-13c0-1-.2-2.1-.4-3.3-.2-1.2-.3-2.5-.6-3.7l2.8-.6c.2,1,.3,2.2.5,3.5s.3,2.5.4,3.6.2,2.1.2,2.8v12.4h-8.4Z"/><path class="cls-2" d="M343.4,75.4v-32.1h2.8v32.1h-2.8ZM346.2,75.4v-3.2h4.5v3.2h-4.5ZM350.7,75.4v-3.2s.3,0,.4.1c0,0,.2.2.2.3v2.3c0,.1,0,.2-.2.3,0,0-.2.1-.4.1h0Z"/><path class="cls-2" d="M350.7,75.4s-.3,0-.4-.1c0,0-.2-.2-.2-.3v-2c0-.2,0-.4.2-.5s.3-.2.5-.2v3.2h0ZM350.7,75.4v-3.2h5.3l-1.3,1.3v-20.5h2.9v22.4h-6.9ZM354.7,83.4v-4h2.9v4h-2.9Z"/><path class="cls-2" d="M371.1,75.4v-5.2h3.1v5.2h-3.1Z"/><path class="cls-2" d="M378.1,75.4v-3.2h13.7l-2.4,2.5v-9.8c0-2.2-.2-4-.6-5.2-.4-1.3-1.1-2.2-2-2.8-.9-.6-2.2-.8-3.8-.8h-3v-3.2h3c2,0,3.6.4,5,1.1s2.5,2,3.2,3.7,1.1,4.1,1.1,7.1v10.4h-14.2v.2h0Z"/><path class="cls-2" d="M160.9,122.2c-1,0-1.8-.2-2.6-.6-.8-.4-1.4-1-1.8-1.8s-.7-1.6-.7-2.6v-1.2c0-.5,0-1.1.2-1.7,0-.6,0-1.3.2-1.9,0-.6.2-1.2.2-1.8l1.4.3c0,1-.3,1.9-.4,2.8s-.2,1.6-.2,2.2v1.4c0,.7.2,1.3.5,1.8s.7.9,1.3,1.2c.6.3,1.2.5,1.9.5s1.3-.1,1.9-.4c.5-.3.9-.7,1.2-1.2s.4-1.1.4-1.8v-11.5h1.4v11.5c0,1-.2,1.9-.7,2.6s-1,1.3-1.8,1.7c-.7.4-1.6.6-2.5.6h0ZM160.1,105.7v-2h1.4v2h-1.4Z"/><path class="cls-2" d="M168.9,116.7v-15.8h1.4v15.8h-1.4ZM170.3,116.7v-1.6h2.2v1.6h-2.2ZM172.5,116.7v-1.6h.2v1.5h-.2Z"/><path class="cls-2" d="M172.5,116.7h-.2v-1.5h.2v1.6h0ZM172.5,116.7v-1.6h2.6l-.7.6v-10.1h1.4v11h-3.4,0ZM174.4,103.7v-2h1.4v2h-1.4ZM175.9,116.7v-1.6h2v1.6h-2ZM177.8,116.7v-1.6h.2v1.5h-.2Z"/><path class="cls-2" d="M177.8,116.7h-.2v-1.5h.2v1.6h0ZM177.8,116.7v-1.6h2.6l-.4.4v-7.7h1.4v8.8h-3.7,0ZM181.5,116.7v-1.6h2c.4,0,.7,0,.9-.2.2-.1.4-.4.4-.9v-7.2h1.4v5.3c0,1.1,0,2.1-.3,2.7s-.5,1.2-.9,1.4c-.4.3-1,.4-1.7.4h-2,.2ZM187.3,116.7c-.4,0-.8,0-1.2-.3s-.8-.5-1.1-.9l.9-1.2c.3.3.5.5.7.6s.4.2.7.2h3.2l-.5.7v-6.4c0-.5,0-1-.2-1.6,0-.6-.2-1.2-.3-1.8l1.4-.3c0,.5.2,1.1.3,1.7,0,.6.2,1.2.2,1.8v7.5h-4.1Z"/><path class="cls-2" d="M193.4,99.5v-1.2h3.6v1.2h-3.6ZM194.3,99.5c-.2-.3-.3-.6-.4-.9s-.2-.6-.2-.9,0-.8.3-1.1.4-.6.7-.8c.3-.2.6-.3.9-.3h.6c.2,0,.4.2.5.3l-.5,1s-.2-.1-.3-.1h-.3c-.3,0-.5,0-.7.3-.2.2-.2.4-.2.7v.5c0,.1.2.4.3.6l-.8.6h0ZM194.5,116.7v-15.8h1.4v15.8h-1.4ZM195.9,116.7v-1.6h2.2v1.6h-2.2ZM198.1,116.7v-1.6h.2v1.5h-.2Z"/><path class="cls-2" d="M198.1,116.7h-.2v-1.5h.2v1.6h0ZM198.1,116.7v-1.6h2.2v1.6h-2.2ZM200.3,116.7v-15.8h1.4v15.8h-1.4Z"/><path class="cls-2" d="M204.9,116.7v-15.8h1.4v15.8h-1.4Z"/><path class="cls-2" d="M216.2,121.6c-.4,0-.9,0-1.3-.1-.5,0-1-.2-1.6-.3l.2-1.4c.6.1,1.2.2,1.6.2h1.1c1,0,1.7-.2,2.2-.7s.7-1.1.7-2v-10.6l.7.6h-3.1c-.7,0-1.2.1-1.6.3-.4.2-.6.6-.8,1.2,0,.6-.2,1.4-.2,2.5s0,1.9.2,2.5c0,.6.4.9.8,1.2.4.2.9.3,1.6.3h2.3v1.6h-2.3c-1,0-1.9-.2-2.5-.6s-1-1-1.2-1.8-.4-1.8-.4-3.1,0-2.3.4-3.1c.2-.8.6-1.4,1.2-1.8s1.4-.6,2.5-.6h3.7v11.6c0,.9-.2,1.7-.5,2.3s-.8,1.1-1.5,1.5c-.6.3-1.4.5-2.3.5v-.2h.1Z"/><path class="cls-2" d="M227,124c0-.8-.2-1.6-.3-2.4v-1.9c0-1,0-1.8.4-2.4.3-.7.7-1.2,1.2-1.6s1.1-.5,1.8-.5h5.5l-1,1.1v-4.9c0-1,0-1.8-.3-2.4-.2-.6-.5-1-1-1.3s-1.1-.4-1.9-.4-1,0-1.5.1c-.5,0-.9.2-1.2.4l.8-1.1c0,.4,0,.8-.2,1.3,0,.5,0,1.1-.2,1.7v3.6c0,.6,0,1.1.2,1.6s0,.7,0,.9l-1.3.5c0-.2,0-.5-.2-1,0-.5,0-1-.2-1.7v-4.2c0-.7,0-1.3.2-1.9s.2-1,.2-1.3c.3-.1.7-.3,1.3-.4.6-.1,1.2-.2,1.9-.2s1.1,0,1.6.2c.5.1.9.3,1.3.6.4.3.7.6.9,1.1.2.4.4,1,.6,1.6,0,.6.2,1.3.2,2.2v5.4h-6.4c-.2,0-.4.2-.7.4-.2.2-.4.5-.5.9s-.2.9-.2,1.6v1.9c0,.7.2,1.5.3,2.4h-1.4,0ZM235.8,116.7v-1.6h2v1.6h-2ZM237.7,116.7v-1.6h.2v1.5h-.2Z"/><path class="cls-2" d="M237.7,116.7h-.2v-1.5h.2v1.6h0ZM237.7,116.7v-1.6h9.1l-.9,1v-9.6l.7.7h-3.1c-.7,0-1.2.1-1.6.3-.4.2-.6.6-.8,1.2,0,.6-.2,1.4-.2,2.5s0,1.9.2,2.5c0,.6.4.9.8,1.2.4.2.9.3,1.6.3v1.1c-1,0-1.9-.2-2.5-.5s-1-.8-1.2-1.6c-.2-.7-.4-1.7-.4-3s0-2.3.4-3.1c.2-.8.6-1.4,1.2-1.8s1.4-.6,2.5-.6h3.7v11h-9.6.1ZM243.2,103.7v-2h1.4v2h-1.4ZM247.3,116.7v-1.6h2v1.6h-2ZM249.3,116.7v-1.6h.2v1.5h-.2Z"/><path class="cls-2" d="M249.3,116.7h-.2v-1.5h.2v1.6h0ZM249.3,116.7v-1.6h2.2v1.6h-2.2ZM251.5,116.7v-15.8h1.4v15.8h-1.4Z"/><path class="cls-2" d="M256,116.7v-15.8h1.4v15.8h-1.4Z"/><path class="cls-2" d="M267.9,116.7c-1,0-1.9-.2-2.5-.6s-1-1-1.2-1.8-.4-1.8-.4-3.1,0-2.3.4-3.1c.2-.8.6-1.4,1.2-1.8s1.4-.6,2.5-.6h3.7v10.1h-1.4v-9.3l.7.7h-3.1c-.7,0-1.2.1-1.6.3-.4.2-.6.6-.8,1.2,0,.6-.2,1.4-.2,2.5s0,1.9.2,2.5c0,.6.4.9.8,1.2.4.2.9.3,1.6.3h5.7v1.6h-5.7.1ZM266.1,103.7v-2h1.4v2h-1.4ZM268.6,103.7v-2h1.4v2h-1.4ZM273.6,116.7v-1.6h.2v1.5h-.2Z"/><path class="cls-2" d="M273.6,116.7h-.2v-1.5h.2v1.6h0ZM273.6,116.7v-1.6h8l-.4.5v-5.4c0-1-.2-1.7-.7-2.1-.5-.5-1.2-.7-2.2-.7h-1.4c-.6,0-1.2.2-1.9.3l-.2-1.4c.5-.1,1-.3,1.6-.4s1.2-.2,1.7-.2c.9,0,1.7.2,2.4.5.7.3,1.2.8,1.5,1.5s.5,1.5.5,2.4v6.5h-8.9Z"/><path class="cls-2" d="M285.3,116.7v-15.8h1.4v15.8h-1.4Z"/><path class="cls-2" d="M288.6,121.6h-1l.2-1.6h.9c.6,0,1-.3,1.4-.8.3-.5.5-1.2.5-2.2v-11.3h1.4v11.3c0,.9,0,1.7-.4,2.4-.3.7-.7,1.2-1.2,1.6s-1.1.6-1.7.6h-.1ZM291.6,116.7v-1.6h2.3v1.6h-2.3ZM293.9,116.7v-1.6h.2v1.5h-.2Z"/><path class="cls-2" d="M293.9,116.7h-.2v-1.5h.2v1.6h0ZM293.9,116.7v-1.6h8l-.4.5v-5.4c0-1-.2-1.7-.7-2.1-.5-.5-1.2-.7-2.2-.7h-1.4c-.6,0-1.2.2-1.9.3l-.2-1.4c.5-.1,1-.3,1.6-.4s1.2-.2,1.7-.2c.9,0,1.7.2,2.4.5.7.3,1.2.8,1.5,1.5s.5,1.5.5,2.4v6.5h-8.9ZM297.7,120.7v-2h1.4v2h-1.4Z"/><path class="cls-2" d="M308.1,121.6c-.4,0-.9,0-1.3-.1-.5,0-1-.2-1.6-.3l.2-1.4c.6.1,1.2.2,1.6.2h1.1c1,0,1.7-.2,2.2-.7s.7-1.1.7-2v-10.6l.7.6h-3.1c-.7,0-1.2.1-1.6.3-.4.2-.6.6-.8,1.2,0,.6-.2,1.4-.2,2.5s0,1.9.2,2.5c0,.6.4.9.8,1.2.4.2.9.3,1.6.3h2.3v1.6h-2.3c-1,0-1.9-.2-2.5-.6s-1-1-1.2-1.8-.4-1.8-.4-3.1,0-2.3.4-3.1c.2-.8.6-1.4,1.2-1.8s1.4-.6,2.5-.6h3.7v11.6c0,.9-.2,1.7-.5,2.3s-.8,1.1-1.5,1.5c-.6.3-1.4.5-2.3.5v-.2h.1Z"/><path class="cls-2" d="M323.8,116.7c-1.2,0-2.2-.2-3-.5s-1.4-.8-1.8-1.5-.6-1.6-.6-2.6v-1.1c0-.4,0-.8.2-1.2,0-.4,0-.7.2-1v-.6l1.4.3c0,.2,0,.6-.2,1s0,.8-.2,1.3,0,.9,0,1.3,0,1,.2,1.4.4.7.7,1c.3.3.7.4,1.2.6.5.1,1.1.2,1.9.2h5.3v-9.4h1.4v11h-6.7v-.2h0ZM323.8,120.7v-2h1.4v2h-1.4ZM330.5,116.7v-1.6h2v1.6h-2ZM332.5,116.7v-1.6h.2v1.5h-.2Z"/><path class="cls-2" d="M332.5,116.7h-.2v-1.5h.2v1.6h0ZM332.5,116.7v-1.6h12l-1.3,1.4v-5.2c0-.9,0-1.7-.3-2.3s-.5-1.1-.9-1.4-.9-.5-1.6-.5-1,.1-1.5.3c-.5.2-.9.5-1.3.8s-.7.7-1.1,1.1c-.3.4-.6.8-.9,1.3s-.5.8-.8,1.2l-.5-1.6c.4-.6.8-1.1,1.1-1.7s.8-1.1,1.3-1.5c.5-.5,1-.8,1.6-1.1.6-.3,1.2-.4,2-.4s1.6.2,2.1.5c.5.4,1,.8,1.3,1.4s.5,1.2.6,1.9c0,.7.2,1.3.2,1.9v5.3h-12.1v.2h.1ZM333.7,115.1v-14.2h1.4v14.2h-1.4Z"/><path class="cls-1" d="M63.7,78.5c-11.3,19.1-23,37.9-34.4,57.1-.2.5-1.2,2.1-3.4,2.2-2,0-3.7-1.7-3.7-3.6l-5.9-54.7c-1-4.1-5.1-6.6-9.2-5.5-1.2.3-2.2.9-3.1,1.6-1.9,1.5-3.1,3.4-3.3,3.7v-4.4c0-.5.2-1,.5-1.3,1.4-1.5,3.2-2.7,5.3-3.2,2.7-.7,5.5-.3,7.8.8,2.7,1.4,5,4,5.7,7.2l5.5,52v.2c0,.7.5,1.2,1.2,1.2s.7,0,.9-.4c0,0,1.4-2.7,1.8-3.2,10.2-17.1,20.6-33.9,31-50.7.8-1.1,1.5-2.4,2.3-3.6,4.4-7.2,8.9-14.4,13.4-21.6,6.4-10.3,5.2-24.9-2.6-35.7-5.9-8.1-17.5-12.4-28.1-12.1-3.5.1-7,1.2-10,3.1C21.5,16.1,11.9,19.4,2.7,19c-1,0-1.8-.9-1.8-2s.9-2.1,2.1-2c9.8.6,13.2-1.5,33.1-11.9,2.3-1.2,4.9-2,7.5-2.3,12.8-1.2,26.2,3.7,33.7,14.3,8,11.2,8.9,23.6,2.7,36.2-2.5,5.2-5.7,10.2-8.7,15.6l-4.8,7.5c-.3.4-2.6,4.2-2.6,4.2h-.2Z"/><polygon class="cls-1" points="3.9 73.7 3.9 161.3 .6 161.3 .6 76.6 3.9 73.7"/><path class="cls-1" d="M45.9,162.8c-14.9.2-45.3.1-45.3.1v-1.6h3.3v-1.6h9.4c10.8,0,21.7-.2,32.5-.5,18.9-.5,35.3-14,39.5-31.9,3.4-14.6-.4-29-9.4-39.3-3.4-3.8-6.3-6.1-8.3-7.5-.4-.3-.7-.8-.7-1.3,0-.9.7-1.6,1.6-1.6s.4,0,.6.1c0,0,.2.1.3.2,10,6.5,16.7,15.5,19.9,27.6,7.2,28-14.5,57.1-43.4,57.3h0Z"/></g></svg>