<svg xmlns="http://www.w3.org/2000/svg" xmlns:xlink="http://www.w3.org/1999/xlink" id="katman_1" data-name="katman 1" version="1.1" viewBox="0 0 690.05 716.87">
  <defs>
    <style>
      .cls-1 {
        fill: url(#Adsız_degrade_3);
      }

      .cls-1, .cls-2, .cls-3 {
        stroke-width: 0px;
      }

      .cls-2 {
        fill: url(#Adsız_degrade);
      }

      .cls-3 {
        fill: url(#Adsız_degrade_2);
      }
    </style>
    <linearGradient id="Adsız_degrade" data-name="Adsız degrade" x1="396.9" y1="-344.45" x2="1156.9" y2="438.19" gradientTransform="translate(-38.98 389.69) scale(.5 -.5)" gradientUnits="userSpaceOnUse">
      <stop offset="0" stop-color="#013463"/>
      <stop offset="1" stop-color="#1bade0"/>
    </linearGradient>
    <linearGradient id="Adsız_degrade_2" data-name="Adsız degrade 2" x1="312.04" y1="-143.36" x2="1268.43" y2="-269.96" gradientTransform="translate(-38.98 389.69) scale(.5 -.5)" gradientUnits="userSpaceOnUse">
      <stop offset="0" stop-color="#52c2b1"/>
      <stop offset="1" stop-color="#11ccd6"/>
    </linearGradient>
    <linearGradient id="Adsız_degrade_3" data-name="Adsız degrade 3" x1="178.14" y1="30.3" x2="1191.4" y2="804.97" gradientTransform="translate(-38.98 389.69) scale(.5 -.5)" gradientUnits="userSpaceOnUse">
      <stop offset="0" stop-color="#0e75aa"/>
      <stop offset="1" stop-color="#14a3cf"/>
    </linearGradient>
  </defs>
  <path class="cls-2" d="M434.89,259.99c6.77-4.32,14.52-7.54,21.83-10.82,37.79-16.99,77.76-23.54,118.52-14.62,20.84,4.56,38.46,14.12,55.46,26.85,16.42,12.3,31.73,27.82,42.85,45.15,4,6.22,7.28,12.68,10.55,19.29,2.15,4.33,4.55,8.66,5.95,13.31-7.88-8.56-14.93-17.32-23.49-25.31-32.84-30.67-76.17-52.06-121.53-53.88-25.76-1.03-49.9,4.88-73.54,14.79l-20.9,9.89c-18.83,10.86-37.01,21.82-54.75,34.47l-18.49,13.45c-4.32,3.32-8.66,7.26-13.26,10.15-.6,1.66-24.55,19.25-28.17,22.01-25.57,19.48-50.52,39.89-77.23,57.83-15.83,10.64-32.38,21.09-49.53,29.42-39.37,19.15-82.86,30.15-125.63,15.23-27.85-9.72-52.61-27.86-72.14-49.78-3.76-4.21-8.94-9.79-11.4-14.89,9.91,7.21,19.58,14.94,29.91,21.55,17.95,11.47,39.42,20.24,60.52,23.43,16.34,2.47,32.41,1.43,48.6-1.6,50.32-9.4,93.86-39.3,134.3-69.17l95.3-73.49,39.33-27.54c8.7-5.57,17.59-11.26,26.92-15.72Z"/>
  <path class="cls-3" d="M581.21,286.63c15.93,5.63,30.08,11.55,43.95,21.37l-9.91,50.39c-23.08,101.14-57.45,200.43-115.6,287.01l-26.33,35.46c-7.83,9.58-16.24,19.29-26.03,26.9-7.07,5.49-16.6,10.18-25.78,8.9-9.88-1.38-17.43-8.9-20.07-18.29-1.98-7.02-1.66-14.95-1.76-22.2l-.42-27.04c-.44-19.91-.97-40.04-3.44-59.83-3.48-27.89-10.91-56.4-22.3-82.14-4.18-9.45-8.64-19.27-14.81-27.62-3.8-5.14-8.26-10.26-14.98-11.09-3.92-.48-7.27,1.3-10.27,3.67-8.59,6.74-13.66,16.96-18.32,26.59-7.16,14.83-12.38,30.26-16.77,46.11-8.2,29.57-12.72,60.36-13.66,91.05-.33,10.6.16,21.1.71,31.67.42,8.11,1.33,16.82.29,24.88l-.13.95-.95,4.72c-1.86,6.44-6.44,12.51-12.45,15.67-5.91,3.1-13.04,3.43-19.34,1.27-8.45-2.89-14.85-8.74-21.26-14.71-13.9-12.97-25.68-28.35-36.71-43.79-19.11-26.78-36.3-55.71-50.81-85.24l-33.09-77.12c18.75,2.51,35.32,1.77,53.81-2.3,4.58,12.12,11.74,24.07,17.73,35.62l49.93,88.97c7.81,12.9,14.76,26.78,24.76,38.18-4.55-31.02-6.84-61.77-4.38-93.14,2.69-34.29,12.26-68.7,29.74-98.43,6.19-10.53,13.46-20.83,22.83-28.78,11.79-10.01,24.87-16.57,40.75-15.13,18.63,1.68,33.01,13.42,44.61,27.28,11.44,13.67,19.5,29.85,25.93,46.39,13.45,34.55,19.57,72.29,18.77,109.3-.37,17.27-3.44,34.1-5.02,51.24,3.66-4.27,6.58-9.3,9.67-13.97l18.21-28.4c41.36-65.88,74.03-138.01,96.38-212.54l15.77-61.66c3.79-16.68,8.04-33.24,10.74-50.15Z"/>
  <path class="cls-1" d="M495,.58c8.61-1.18,18.55-.3,27.16.49,30.03,2.78,57.74,16.72,76.98,40.09,5.55,6.74,10.03,14.54,14.01,22.3,16.1,31.45,20.96,66.3,22.6,101.16,1.14,24.27.57,48.17-1.89,72.35-14.93-9.12-30.29-17.31-47.48-21.33l-2.77-40c-2.27-18.79-6.52-37.35-12.85-55.18-7.22-20.36-17.07-40.04-34.52-53.6-10.27-7.98-23.25-13.64-36.2-15.21-41.21-5-67.49,27.35-100.34,45.45-16.26,8.96-33.71,14.09-52.08,16.26-43.24,5.11-81.61-18.75-112.88-45.92-3.51-3.05-7.06-6.13-10.32-9.46-3.04-3.11-5.85-6.6-9.27-9.29,3.38,6.45,8.69,12.16,13.47,17.59,17.3,19.66,36.34,36.91,59.47,49.5,27.58,15.01,57.76,19.48,87.82,9.6,20.92-6.87,39.89-18.86,58.21-30.81,14.3-9.33,28.85-20.01,45.44-24.79,10.27-2.96,20.33-2.39,29.76,2.87,11.95,6.67,19.46,17.21,23.18,30.29,6.78,23.87-.17,47.24-11.89,68.15-8.73,13.97-19.37,25.01-31.51,35.98-3.35,3.02-6.72,6.46-10.36,9.11-3.8,2.77-11.17,3.93-15.79,5.46-5.86,1.94-11.7,4.04-17.36,6.51-16.75,7.3-33.36,17.36-48.55,27.42l-80.76,59.28c-30.19,23.86-59.59,48.23-91.84,69.36-39.24,25.7-89.71,50.02-137.77,40-17.59-62.68-31.12-127.17-36.93-192.08-2.47-27.66-3.46-55.71-1.37-83.42,2.85-37.95,12.02-76.98,37.19-106.77C115.16,6.9,160.59-3.47,204.69,1.98c23.82,2.94,48.34,10.39,70.54,19.32l26,11.31c15.25,7.16,28.03,14.51,45.51,13.55,14.41-.79,26.15-7.75,38.94-13.62l24.74-10.58c26.98-10.75,55.59-18.85,84.57-21.38Z"/>
</svg>